# xmcd CD database file
#
# Track frame offsets:
#	150
#	19450
#	39203
#	52233
#	77800
#	93288
#	111960
#	124878
#	141848
#	155245
#	167260
#	185933
#	201143
#	218285
#	231640
#	248525
#	264290
#	284328
#	302913
#	319958
#	333193
#
# Disc length: 4658 seconds
#
# Revision: 0
# Processed by: cddbd v1.5.1PL2 Copyright (c) Steve Scherf et al.
# Submitted via: CDex 1.70beta2
#
DISCID=33123015
DTITLE=Earl Hines - Another Monday Date
DYEAR=1955
DGENRE=Jazz
TTITLE0=Jitterbug Waltz
TTITLE1=Black and Blue
TTITLE2=Blue Turning Gray Over You
TTITLE3=Honeysuckle Rose
TTITLE4=Squeeze Me
TTITLE5=Ain't Misbehavin'
TTITLE6=Keepin' Out of Mischief Now
TTITLE7=I Can't Give You Anything But Love
TTITLE8=I'm Gonna Sit Right Down and Write Myself a Letter
TTITLE9=Deep Forest
TTITLE10=Everything Depends on You
TTITLE11=Am I Too Late?
TTITLE12=Blues for Tatum
TTITLE13=In San Francisco
TTITLE14=Ann
TTITLE15=You Can Depend On Me
TTITLE16=When I Dream of You
TTITLE17=R.R. Blues
TTITLE18=Straight to Love
TTITLE19=Piano Man
TTITLE20=My Monday Date
EXTD=YEAR: 1955
EXTT0=
EXTT1=
EXTT2=
EXTT3=
EXTT4=
EXTT5=
EXTT6=
EXTT7=
EXTT8=
EXTT9=
EXTT10=
EXTT11=
EXTT12=
EXTT13=
EXTT14=
EXTT15=
EXTT16=
EXTT17=
EXTT18=
EXTT19=
EXTT20=
PLAYORDER=
